<svg width="16" height="16" viewBox="0 0 16 16" fill="none" xmlns="http://www.w3.org/2000/svg">
<path fill-rule="evenodd" clip-rule="evenodd" d="M8 16C12.4183 16 16 12.4183 16 8C16 3.58172 12.4183 0 8 0C3.58172 0 0 3.58172 0 8C0 12.4183 3.58172 16 8 16ZM11.916 5.27735C12.0692 5.04759 12.0071 4.73715 11.7773 4.58397C11.5476 4.4308 11.2372 4.49289 11.084 4.72265L7.45542 10.1655L5.38411 7.67991C5.20733 7.46777 4.89205 7.43911 4.67991 7.61589C4.46777 7.79267 4.43911 8.10795 4.61589 8.32009L7.11589 11.3201C7.21688 11.4413 7.36914 11.5077 7.52667 11.4993C7.6842 11.4909 7.82852 11.4086 7.91603 11.2773L11.916 5.27735Z" fill="#81C995"/>
</svg>
