<svg width="16" height="16" viewBox="0 0 16 16" fill="none" xmlns="http://www.w3.org/2000/svg">
<path fill-rule="evenodd" clip-rule="evenodd" d="M8 16C12.4183 16 16 12.4183 16 8C16 3.58172 12.4183 0 8 0C3.58172 0 0 3.58172 0 8C0 12.4183 3.58172 16 8 16ZM5.17175 5.17175C5.36701 4.97649 5.68359 4.97649 5.87886 5.17175L8.00018 7.29307L10.1215 5.17175C10.3168 4.97649 10.6333 4.97649 10.8286 5.17175C11.0239 5.36701 11.0239 5.68359 10.8286 5.87886L8.70728 8.00018L10.8286 10.1215C11.0239 10.3168 11.0239 10.6333 10.8286 10.8286C10.6333 11.0239 10.3168 11.0239 10.1215 10.8286L8.00018 8.70728L5.87886 10.8286C5.68359 11.0239 5.36701 11.0239 5.17175 10.8286C4.97649 10.6333 4.97649 10.3168 5.17175 10.1215L7.29307 8.00018L5.17175 5.87886C4.97649 5.68359 4.97649 5.36701 5.17175 5.17175Z" fill="#E45F53"/>
</svg>
